<?xml version="1.0" encoding="utf-8"?>
<!-- Generator: Adobe Illustrator 18.0.0, SVG Export Plug-In . SVG Version: 6.00 Build 0)  -->
<!DOCTYPE svg PUBLIC "-//W3C//DTD SVG 1.1//EN" "http://www.w3.org/Graphics/SVG/1.1/DTD/svg11.dtd">
<svg version="1.1" id="Calque_1" shape-rendering="geometricPrecision"
	 xmlns="http://www.w3.org/2000/svg" xmlns:xlink="http://www.w3.org/1999/xlink" x="0px" y="0px" viewBox="0 0 300 300"
	 enable-background="new 0 0 300 300" xml:space="preserve">
<g>
	<g>
		<path fill="#677481" d="M149.7,194.2c25,0,45.2-20.4,45.2-45.2s-20.4-45.2-45.2-45.2s-45.2,20.4-45.2,45.2
			S124.7,194.2,149.7,194.2z M149.7,116.8c17.8,0,32.1,14.4,32.1,32.1s-14.4,32.1-32.1,32.1s-32.1-14.4-32.1-32.1
			S132,116.8,149.7,116.8z"/>
		<path fill="#677481" d="M156.4,82.7V61.9c0-3.7-2.9-6.6-6.6-6.6s-6.6,2.9-6.6,6.6v20.8c0,3.7,2.9,6.6,6.6,6.6
			C153.4,89.3,156.4,86.4,156.4,82.7z"/>
		<path fill="#677481" d="M143.1,215.2V236c0,3.7,2.9,6.6,6.6,6.6c3.7,0,6.6-2.9,6.6-6.6v-20.8c0-3.7-2.9-6.6-6.6-6.6
			S143.1,211.5,143.1,215.2z"/>
		<path fill="#677481" d="M201.3,106.8L216,92.1c2.6-2.6,2.6-6.8,0-9.4c-2.6-2.6-6.8-2.6-9.4,0l-14.7,14.7c-2.6,2.6-2.6,6.8,0,9.4
			c1.3,1.3,2.9,1.9,4.7,1.9C198.4,108.7,200,108.1,201.3,106.8L201.3,106.8z"/>
		<path fill="#677481" d="M83.5,215.2c1.3,1.3,2.9,1.9,4.7,1.9c1.6,0,3.4-0.6,4.7-1.9l14.7-14.7c2.6-2.6,2.6-6.8,0-9.4
			c-2.6-2.6-6.8-2.6-9.4,0l-14.7,14.7C80.9,208.4,80.9,212.6,83.5,215.2z"/>
		<path fill="#677481" d="M243.4,148.9c0-3.7-2.9-6.6-6.6-6.6H216c-3.7,0-6.6,2.9-6.6,6.6c0,3.7,2.9,6.6,6.6,6.6h20.8
			C240.4,155.6,243.4,152.6,243.4,148.9z"/>
		<path fill="#677481" d="M62.6,155.6h20.8c3.7,0,6.6-2.9,6.6-6.6s-2.9-6.6-6.6-6.6H62.6c-3.7,0-6.6,2.9-6.6,6.6
			C56,152.6,59.1,155.6,62.6,155.6z"/>
		<path fill="#677481" d="M211.3,217.1c1.6,0,3.4-0.6,4.7-1.9c2.6-2.6,2.6-6.8,0-9.4l-14.7-14.7c-2.6-2.6-6.8-2.6-9.4,0
			c-2.6,2.6-2.6,6.8,0,9.4l14.7,14.7C207.9,216.5,209.7,217.1,211.3,217.1z"/>
		<path fill="#677481" d="M107.6,106.8c2.6-2.6,2.6-6.8,0-9.4L92.9,82.7c-2.6-2.6-6.8-2.6-9.4,0c-2.6,2.6-2.6,6.8,0,9.4l14.7,14.7
			c1.3,1.3,2.9,1.9,4.7,1.9C104.7,108.7,106.3,108.1,107.6,106.8z"/>
	</g>
</g>
</svg>
